<svg width="195" height="220" viewBox="0 0 195 220" fill="none" xmlns="http://www.w3.org/2000/svg">
<path d="M97.4999 220C112.873 220 125.344 207.689 125.344 192.5H69.6559C69.6559 207.689 82.1265 220 97.4999 220ZM191.252 155.671C182.842 146.751 167.107 133.332 167.107 89.3747C167.107 55.9883 143.394 29.2617 111.419 22.7047V13.75C111.419 6.15742 105.187 0 97.4999 0C89.8128 0 83.5802 6.15742 83.5802 13.75V22.7047C51.6054 29.2617 27.8922 55.9883 27.8922 89.3747C27.8922 133.332 12.1573 146.751 3.74794 155.671C1.13634 158.443 -0.0214623 161.756 0.000300937 165C0.0481802 172.047 5.65005 178.75 13.9723 178.75H181.028C189.349 178.75 194.956 172.047 195 165C195.021 161.756 193.863 158.439 191.252 155.671Z" fill="white"/>
</svg>
