<svg width="269" height="209" viewBox="0 0 269 209" fill="none" xmlns="http://www.w3.org/2000/svg">
<path d="M130.934 54.2201L44.8369 125.069V201.535C44.8369 203.515 45.6241 205.413 47.0253 206.814C48.4265 208.214 50.3269 209 52.3085 209L104.638 208.865C106.613 208.855 108.504 208.064 109.897 206.665C111.29 205.266 112.073 203.373 112.073 201.4V156.744C112.073 154.764 112.86 152.865 114.261 151.466C115.662 150.065 117.562 149.279 119.544 149.279H149.431C151.412 149.279 153.312 150.065 154.714 151.466C156.115 152.865 156.902 154.764 156.902 156.744V201.367C156.899 202.349 157.09 203.322 157.464 204.231C157.838 205.139 158.388 205.965 159.082 206.661C159.777 207.356 160.601 207.908 161.509 208.285C162.417 208.662 163.391 208.855 164.374 208.855L216.685 209C218.666 209 220.567 208.214 221.968 206.814C223.369 205.413 224.157 203.515 224.157 201.535V125.017L138.078 54.2201C137.066 53.4051 135.806 52.9607 134.506 52.9607C133.206 52.9607 131.946 53.4051 130.934 54.2201ZM266.931 102.375L227.892 70.2235V5.59883C227.892 4.11393 227.302 2.68985 226.251 1.63986C225.2 0.589875 223.775 0 222.288 0H196.138C194.652 0 193.226 0.589875 192.175 1.63986C191.125 2.68985 190.534 4.11393 190.534 5.59883V39.4765L148.726 5.10894C144.713 1.81019 139.679 0.00659422 134.482 0.00659422C129.287 0.00659422 124.252 1.81019 120.24 5.10894L2.03368 102.375C1.46625 102.843 0.996782 103.419 0.652116 104.069C0.307448 104.719 0.0943334 105.431 0.0249467 106.163C-0.0444397 106.895 0.0312626 107.633 0.247728 108.337C0.464194 109.04 0.817178 109.693 1.28652 110.26L13.1945 124.724C13.6625 125.292 14.2382 125.763 14.8887 126.109C15.539 126.455 16.2514 126.669 16.9849 126.74C17.7184 126.811 18.4586 126.736 19.1632 126.521C19.8678 126.305 20.5229 125.953 21.091 125.484L130.934 35.0907C131.946 34.2757 133.206 33.8313 134.506 33.8313C135.806 33.8313 137.066 34.2757 138.078 35.0907L247.926 125.484C248.493 125.953 249.147 126.306 249.851 126.522C250.554 126.738 251.293 126.814 252.026 126.744C252.759 126.675 253.472 126.462 254.122 126.118C254.772 125.773 255.349 125.304 255.817 124.737L267.725 110.274C268.194 109.704 268.546 109.047 268.76 108.341C268.974 107.635 269.046 106.894 268.972 106.159C268.898 105.425 268.68 104.713 268.33 104.064C267.979 103.414 267.505 102.84 266.931 102.375Z" fill="white"/>
</svg>
