<svg width="236" height="238" viewBox="0 0 236 238" fill="none" xmlns="http://www.w3.org/2000/svg">
<path d="M188.799 0H47.2005C21.1324 0 0 21.1159 0 47.1637V133.629C0 156.538 16.3502 175.615 38.0224 179.886V238L88.5706 187.491L60.42 180.793H188.799C214.868 180.793 236 159.677 236 133.629V47.1637C236 21.1159 214.87 0 188.799 0ZM70.7994 75.9855C78.7523 75.9855 85.2232 82.4514 85.2232 90.3978C85.2232 98.3414 78.7523 104.81 70.7994 104.81C62.8466 104.81 56.376 98.3443 56.376 90.3978C56.3786 82.4514 62.8466 75.9855 70.7994 75.9855ZM118 104.807C110.047 104.807 103.576 98.3414 103.576 90.3949C103.576 82.4514 110.047 75.9827 118 75.9827C125.953 75.9827 132.424 82.4485 132.424 90.3949C132.424 98.3414 125.953 104.807 118 104.807ZM165.201 104.807C157.248 104.807 150.777 98.3414 150.777 90.3949C150.777 82.4514 157.248 75.9827 165.201 75.9827C173.153 75.9827 179.624 82.4485 179.624 90.3949C179.621 98.3414 173.153 104.807 165.201 104.807Z" fill="white"/>
</svg>
