<svg width="191" height="164" viewBox="0 0 191 164" fill="none" xmlns="http://www.w3.org/2000/svg">
<path d="M187.505 66.8555L170.624 50.2911C168.386 48.0944 165.349 46.8607 162.182 46.8607H143.25V17.5714C143.25 7.86685 135.233 0 125.344 0H65.6562C55.767 0 47.75 7.86685 47.75 17.5714V46.8571H28.8179C25.6507 46.8571 22.6178 48.0907 20.3758 50.2874L3.49545 66.8555C1.25717 69.0522 0 72.032 0 75.1398V105.429H47.75V99.5712C47.75 96.3354 50.4208 93.7141 53.7187 93.7141H65.6562C68.9542 93.7141 71.625 96.3354 71.625 99.5712V105.429H119.375V99.5712C119.375 96.3354 122.046 93.7141 125.344 93.7141H137.281C140.579 93.7141 143.25 96.3354 143.25 99.5712V105.429H191V75.1361C191 72.032 189.743 69.0522 187.505 66.8555ZM119.375 46.8571H71.625V23.4286H119.375V46.8571ZM143.25 123C143.25 126.236 140.579 128.857 137.281 128.857H125.344C122.046 128.857 119.375 126.236 119.375 123V117.143H71.625V123C71.625 126.236 68.9542 128.857 65.6562 128.857H53.7187C50.4208 128.857 47.75 126.236 47.75 123V117.143H0V152.286C0 158.754 5.34577 164 11.9375 164H179.062C185.654 164 191 158.754 191 152.286V117.143H143.25V123Z" fill="white"/>
</svg>
