<svg width="205" height="205" viewBox="0 0 205 205" fill="none" xmlns="http://www.w3.org/2000/svg">
<path d="M102.5 0C45.877 0 0 45.877 0 102.5C0 159.123 45.877 205 102.5 205C159.123 205 205 159.123 205 102.5C205 45.877 159.123 0 102.5 0ZM102.5 39.6774C122.587 39.6774 138.871 55.9618 138.871 76.0482C138.871 96.135 122.587 112.419 102.5 112.419C82.4132 112.419 66.1288 96.135 66.1288 76.0482C66.1288 55.9618 82.4132 39.6774 102.5 39.6774ZM102.5 181.855C78.239 181.855 56.4991 170.861 41.9506 153.667C49.7208 139.036 64.9303 128.952 82.6613 128.952C83.6531 128.952 84.645 129.117 85.5959 129.406C90.9685 131.142 96.5897 132.258 102.5 132.258C108.41 132.258 114.073 131.142 119.404 129.406C120.355 129.117 121.347 128.952 122.339 128.952C140.07 128.952 155.279 139.036 163.05 153.667C148.501 170.861 126.761 181.855 102.5 181.855Z" fill="white"/>
</svg>
