<svg width="408" height="412" viewBox="0 0 408 412" fill="none" xmlns="http://www.w3.org/2000/svg">
<path d="M326.399 0H81.6009C36.534 0 0 36.5536 0 81.6447V231.324C0 270.982 28.2664 304.006 65.7337 311.399V412L153.122 324.564L104.455 312.969H326.399C371.466 312.969 408 276.415 408 231.324V81.6447C408 36.5536 371.471 0 326.399 0ZM122.399 131.538C136.148 131.538 147.335 142.731 147.335 156.487C147.335 170.238 136.148 181.436 122.399 181.436C108.65 181.436 97.4636 170.243 97.4636 156.487C97.4681 142.731 108.65 131.538 122.399 131.538ZM204 181.431C190.251 181.431 179.064 170.238 179.064 156.482C179.064 142.731 190.251 131.533 204 131.533C217.749 131.533 228.936 142.726 228.936 156.482C228.936 170.238 217.749 181.431 204 181.431ZM285.601 181.431C271.852 181.431 260.665 170.238 260.665 156.482C260.665 142.731 271.852 131.533 285.601 131.533C299.35 131.533 310.536 142.726 310.536 156.482C310.532 170.238 299.35 181.431 285.601 181.431Z" fill="#FFC32D"/>
</svg>
