<svg width="1159" height="534" viewBox="0 0 1159 534" fill="none" xmlns="http://www.w3.org/2000/svg">
<path d="M884.207 161.791L857.237 167.918C854.242 154.677 851.755 142.928 849.758 132.654L824.485 133.887L823.723 138.625C822.472 146.261 820.602 156.048 818.115 167.918L791.145 160.351C791.272 159.952 793.269 152.333 797.134 137.582L828.224 20.6881C831.71 6.90853 835.592 0.00244141 839.839 0.00244141C843.325 0.00244141 847.192 9.30432 851.437 27.8896L859.676 62.7355C869.787 106.623 877.963 139.632 884.207 161.791ZM840.773 104.576H844.894C844.64 102.249 844.133 98.7104 843.388 93.9033L838.714 66.4321C837.954 61.9033 837.589 58.2933 837.589 55.551L835.893 66.0331L829.539 104.35C831.774 104.489 835.528 104.576 840.773 104.576Z" fill="#FFC32D"/>
<path d="M786.475 134.719L784.415 163.821C769.931 166.719 756.954 168.056 745.466 167.918C728.623 167.657 717.008 164.255 710.637 157.679C704.395 151.379 701.272 143.257 701.272 133.279C701.272 120.698 701.589 108.186 702.207 95.7437L707.262 0.00244141L736.291 0.800531C734.912 11.7327 734.041 22.753 733.676 33.8073L731.236 109.695C731.109 112.159 730.919 115.699 730.681 120.367C730.554 124.046 730.492 126.649 730.492 128.141C730.492 131.977 731.49 134.718 733.486 136.35C735.356 137.98 739.348 138.797 745.465 138.797C759.079 138.693 772.738 137.322 786.475 134.719Z" fill="#FFC32D"/>
<path d="M688.36 131.024L686.49 163.822C676.508 166.72 663.023 168.057 646.052 167.919C626.688 167.797 614.582 163.563 609.718 155.216C604.854 149.61 602.413 136.282 602.413 115.233C602.413 112.231 603.412 100.552 605.409 80.1614C607.294 60.8986 608.277 43.3884 608.404 27.666C608.531 17.4098 608.04 8.94156 606.915 2.25982L687.237 0.593994L686.302 30.9622C660.458 31.5004 644.485 32.4718 638.369 33.8081L636.88 67.873C655.847 67.5776 670.394 67.0407 680.503 66.2071V98.0168L635.375 99.0407L634.995 109.886C634.74 117.297 635.311 123.301 636.691 127.952C637.927 132.447 641.048 134.72 646.056 134.72C658.902 134.58 673.005 133.348 688.36 131.024Z" fill="#FFC32D"/>
<path d="M592.871 1.82417L591.176 30.3362C590.305 45.2434 589.37 80.9911 588.371 137.582C588.118 148.377 587.246 156.585 585.757 162.19C584.379 165.888 582.762 167.796 580.876 167.918C577.881 167.519 575.33 164.724 573.206 159.518L538.187 79.5511L538.757 167.918L509.538 166.286C510.664 145.393 511.662 122.277 512.534 96.9747L514.594 40.5754C515.228 22.5624 516.162 11.6813 517.414 8.00177C519.031 3.47296 521.154 1.23341 523.768 1.23341C525.765 1.23341 527.587 2.03152 529.203 3.66183C530.581 5.32766 532.816 9.76985 535.937 17.0069L565.52 85.4844L564.032 0.590088L592.871 1.82417Z" fill="#FFC32D"/>
<path d="M500.739 161.791L473.77 167.918C470.775 154.677 468.287 142.928 466.29 132.654L441.017 133.887L440.256 138.625C439.004 146.261 437.134 156.048 434.646 167.918L407.677 160.351C407.804 159.952 409.8 152.333 413.666 137.582L444.755 20.6881C448.241 6.90853 452.123 0.00244141 456.37 0.00244141C459.856 0.00244141 463.723 9.30432 467.969 27.8896L476.209 62.7355C486.319 106.623 494.495 139.632 500.739 161.791ZM457.305 104.576H461.425C461.172 102.249 460.665 98.7104 459.919 93.9033L455.245 66.4321C454.485 61.9033 454.119 58.2933 454.119 55.551L452.423 66.0331L446.069 104.35C448.306 104.489 452.061 104.576 457.305 104.576Z" fill="#FFC32D"/>
<path d="M400.203 1.82345L398.697 40.4C398.079 57.4587 397.635 78.7167 397.382 104.176C397.255 125.607 393.452 141.626 385.974 152.141C378.606 162.657 368.924 167.916 356.944 167.916C344.458 167.916 334.538 163.142 327.17 153.581C319.437 143.603 315.381 130.604 315 114.621L343.839 112.556C344.204 121.302 345.773 127.949 348.513 132.443C350.889 136.279 353.694 138.414 356.943 138.794C359.684 138.794 362.251 136.157 364.613 130.812C366.61 126.439 367.797 117.57 368.179 104.174C369.177 73.5446 369.684 56.9886 369.684 54.5261C369.684 28.5646 369.732 10.3784 369.858 0L400.203 1.82345Z" fill="#FFC32D"/>
<path d="M1110.96 281.19L1094.23 397.928L1072.35 394.804L1080.18 279.436L1110.96 281.19Z" fill="#FFC32D"/>
<path d="M1094.02 407.435C1097.11 410.819 1098.84 415.227 1099.19 420.676C1098.84 425.743 1097.11 429.978 1094.02 433.344C1090.95 436.728 1087.14 438.619 1082.65 439C1077.89 438.618 1073.85 436.658 1070.54 433.153C1067.45 429.908 1065.91 425.743 1065.91 420.676C1065.91 415.366 1067.45 410.941 1070.54 407.435C1073.74 404.19 1077.78 402.558 1082.65 402.558C1087.03 402.558 1090.82 404.19 1094.02 407.435Z" fill="#FFC32D"/>
<path d="M1043.23 416.789L1016.26 422.95C1013.27 409.71 1010.78 397.925 1008.78 387.688L983.492 388.919L982.748 393.622C981.497 401.293 979.627 411.08 977.14 422.95L950.169 415.383C950.297 414.95 952.293 407.365 956.159 392.615L987.249 275.72C990.734 261.906 994.618 255 998.848 255C1002.35 255 1006.22 264.302 1010.46 282.887L1018.7 317.77C1028.81 361.657 1036.99 394.663 1043.23 416.789ZM999.799 359.609H1003.92C1003.67 357.282 1003.16 353.708 1002.41 348.935L997.741 321.464C996.979 316.935 996.615 313.325 996.615 310.583L994.919 321.029L988.566 359.381C990.799 359.522 994.553 359.609 999.799 359.609Z" fill="#FFC32D"/>
<path d="M920.373 256.856L947.897 264.44C944.157 280.162 939.166 303.277 932.923 333.751C924.303 374.636 919.819 395.601 919.438 396.693C915.698 412.85 910.518 421.595 903.894 422.948C902.516 422.687 900.646 421.595 898.286 419.686C893.785 415.312 890.282 406.636 887.795 393.621L861.206 260.137L888.73 255L893.231 286.601C895.972 307.791 900.409 338.054 906.525 377.43C908.522 358.984 909.632 349.144 909.885 347.894C913.875 311.398 917.378 281.064 920.373 256.856Z" fill="#FFC32D"/>
<path d="M834.747 255.797L833.623 365.298C833.385 385.15 833.448 404.275 833.813 422.722L800.109 422.323C802.105 406.879 803.865 378.644 805.355 337.638L808.539 255L834.747 255.797Z" fill="#FFC32D"/>
<path d="M752.168 256.856L779.692 264.44C775.952 280.162 770.961 303.277 764.719 333.751C756.1 374.636 751.614 395.601 751.234 396.693C747.495 412.85 742.313 421.595 735.689 422.948C734.311 422.687 732.441 421.595 730.08 419.686C725.579 415.312 722.077 406.636 719.589 393.621L693.001 260.137L720.525 255L725.025 286.601C727.766 307.791 732.204 338.054 738.319 377.43C740.316 358.984 741.425 349.144 741.679 347.894C745.671 311.398 749.172 281.064 752.168 256.856Z" fill="#FFC32D"/>
<path d="M671.518 197.483C655.837 199.723 639.454 212.604 631.574 228.901L629 234.221V335.308C629 431.69 629.078 436.563 630.404 440.035C638.128 459.58 669.099 472.853 711.149 474.589C715.907 474.757 719.886 475.149 719.886 475.373C719.886 476.941 715.673 483.606 712.631 486.854C708.808 490.942 696.248 500.183 685.95 506.455C676.276 512.279 669.957 516.816 668.319 519.112C666.447 521.744 666.369 526.448 668.241 529.081C671.44 533.617 677.369 534.625 695.702 533.673C731.51 531.769 764.666 522.64 795.56 506.231C806.872 500.183 825.439 486.966 833.396 479.237L839.481 473.357L977.254 473.077L1115.03 472.797L1118.61 471.621C1134.3 466.412 1154.27 451.684 1157.93 442.667C1158.95 440.035 1159.1 427.266 1158.95 333.012L1158.71 226.269L1155.67 221.956C1150.6 214.844 1140.22 206.611 1129.61 201.459C1128.4 200.869 1127.67 200.357 1126.9 199.911C1121.26 196.632 1113.5 196.986 895.105 197.035C773.638 197.091 673 197.259 671.518 197.483ZM1114.25 219.604C1116.43 220.556 1119.94 222.573 1122.13 224.085C1124.23 225.653 1127.04 228.173 1128.37 229.741L1130.63 232.541L1130.86 333.348C1131.06 427.258 1131.56 436.044 1127.42 440.308C1126.52 441.237 1125.39 441.951 1124 443.283C1119.47 447.595 1113.7 451.235 1109.72 452.3C1108.16 452.748 1063.07 452.916 964.382 452.916H821.226L819.276 454.484C817.403 455.884 811.162 462.94 800.552 475.541C795.091 482.038 790.177 485.51 778.553 491.054C768.255 495.926 755.929 500.295 743.758 503.263C738.687 504.551 734.397 505.559 734.241 505.559C734.007 505.559 734.631 504.495 735.567 503.207C738.687 498.783 743.914 488.982 745.553 484.278C746.879 480.637 747.347 477.109 747.737 469.437L748.205 459.356L744.539 456.164L740.872 452.916H711.851C685.326 452.916 682.596 452.804 679.631 451.852C671.596 449.219 662.78 440.875 658.645 431.914L656.695 427.77V333.46C656.695 242.174 656.773 238.982 658.177 235.677C661.064 229.013 671.518 219.884 677.837 218.428C679.709 217.98 742.432 217.812 895.417 217.868L1110.35 217.98L1114.25 219.604Z" fill="#FFC32D"/>
<path d="M671.518 197.483C655.837 199.723 639.454 212.604 631.574 228.901L629 234.221V335.308C629 431.69 629.078 436.563 630.404 440.035C638.128 459.58 669.099 472.853 711.149 474.589C715.907 474.757 719.886 475.149 719.886 475.373C719.886 476.941 715.673 483.606 712.631 486.854C708.808 490.942 696.248 500.183 685.95 506.455C676.276 512.279 669.957 516.816 668.319 519.112C666.447 521.744 666.369 526.448 668.241 529.081C671.44 533.617 677.369 534.625 695.702 533.673C731.51 531.769 764.666 522.64 795.56 506.231C806.872 500.183 825.439 486.966 833.396 479.237L839.481 473.357L977.254 473.077L1115.03 472.797L1118.61 471.621C1134.3 466.412 1154.27 451.684 1157.93 442.667C1158.95 440.035 1159.1 427.266 1158.95 333.012L1158.71 226.269L1155.67 221.956C1150.6 214.844 1140.22 206.611 1129.61 201.459C1128.4 200.869 1127.67 200.357 1126.9 199.911C1121.26 196.632 1113.5 196.986 895.105 197.035C773.638 197.091 673 197.259 671.518 197.483ZM1114.25 219.604C1116.43 220.556 1119.94 222.573 1122.13 224.085C1124.23 225.653 1127.04 228.173 1128.37 229.741L1130.63 232.541L1130.86 333.348C1131.06 427.258 1131.56 436.044 1127.42 440.308C1126.52 441.237 1125.39 441.951 1124 443.283C1119.47 447.595 1113.7 451.235 1109.72 452.3C1108.16 452.748 1063.07 452.916 964.382 452.916H821.226L819.276 454.484C817.403 455.884 811.162 462.94 800.552 475.541C795.091 482.038 790.177 485.51 778.553 491.054C768.255 495.926 755.929 500.295 743.758 503.263C738.687 504.551 734.397 505.559 734.241 505.559C734.007 505.559 734.631 504.495 735.567 503.207C738.687 498.783 743.914 488.982 745.553 484.278C746.879 480.637 747.347 477.109 747.737 469.437L748.205 459.356L744.539 456.164L740.872 452.916H711.851C685.326 452.916 682.596 452.804 679.631 451.852C671.596 449.219 662.78 440.875 658.645 431.914L656.695 427.77V333.46C656.695 242.174 656.773 238.982 658.177 235.677C661.064 229.013 671.518 219.884 677.837 218.428C679.709 217.98 742.432 217.812 895.417 217.868L1110.35 217.98L1114.25 219.604Z" stroke="#FFC32D"/>
</svg>
