<svg width="1160" height="333" viewBox="0 0 1160 333" fill="none" xmlns="http://www.w3.org/2000/svg">
<path d="M1110.96 79.1899L1094.23 195.928L1072.35 192.804L1080.18 77.436L1110.96 79.1899Z" fill="white"/>
<path d="M1094.02 205.435C1097.11 208.819 1098.84 213.227 1099.19 218.676C1098.84 223.743 1097.11 227.978 1094.02 231.344C1090.95 234.728 1087.14 236.619 1082.65 237C1077.89 236.618 1073.85 234.658 1070.54 231.153C1067.45 227.908 1065.91 223.743 1065.91 218.676C1065.91 213.366 1067.45 208.941 1070.54 205.435C1073.74 202.19 1077.78 200.558 1082.65 200.558C1087.03 200.558 1090.82 202.19 1094.02 205.435Z" fill="white"/>
<path d="M1043.23 214.789L1016.26 220.95C1013.27 207.71 1010.78 195.925 1008.78 185.688L983.492 186.919L982.748 191.622C981.497 199.293 979.627 209.08 977.14 220.95L950.169 213.383C950.297 212.95 952.293 205.365 956.159 190.615L987.249 73.7198C990.734 59.9062 994.618 53 998.848 53C1002.35 53 1006.22 62.3019 1010.46 80.8873L1018.7 115.77C1028.81 159.657 1036.99 192.663 1043.23 214.789ZM999.799 157.609H1003.92C1003.67 155.282 1003.16 151.708 1002.41 146.935L997.741 119.464C996.979 114.935 996.615 111.325 996.615 108.583L994.919 119.029L988.566 157.381C990.799 157.522 994.553 157.609 999.799 157.609Z" fill="white"/>
<path d="M912.373 54.856L939.897 62.4396C936.157 78.1619 931.166 101.277 924.923 131.751C916.303 172.636 911.819 193.601 911.438 194.693C907.698 210.85 902.518 219.595 895.894 220.948C894.516 220.687 892.646 219.595 890.286 217.686C885.785 213.312 882.282 204.636 879.795 191.621L853.206 58.1366L880.73 53L885.231 84.6008C887.972 105.791 892.409 136.054 898.525 175.43C900.522 156.984 901.632 147.144 901.885 145.894C905.875 109.398 909.378 79.0637 912.373 54.856Z" fill="white"/>
<path d="M569.207 214.791L542.237 220.918C539.242 207.677 536.755 195.928 534.758 185.654L509.485 186.887L508.723 191.625C507.472 199.261 505.602 209.048 503.115 220.918L476.145 213.351C476.272 212.952 478.269 205.333 482.134 190.582L513.224 73.6881C516.71 59.9085 520.592 53.0024 524.839 53.0024C528.325 53.0024 532.192 62.3043 536.437 80.8896L544.676 115.736C554.787 159.623 562.963 192.632 569.207 214.791ZM525.773 157.576H529.894C529.64 155.249 529.133 151.71 528.388 146.903L523.714 119.432C522.954 114.903 522.589 111.293 522.589 108.551L520.893 119.033L514.539 157.35C516.774 157.489 520.528 157.576 525.773 157.576Z" fill="white"/>
<path d="M826.747 53.7967L825.623 163.298C825.385 183.15 825.448 202.275 825.813 220.722L792.109 220.323C794.105 204.879 795.865 176.644 797.355 135.638L800.539 53L826.747 53.7967Z" fill="white"/>
<path d="M471.475 187.719L469.415 216.821C454.931 219.719 441.954 221.056 430.466 220.918C413.623 220.657 402.008 217.255 395.637 210.679C389.395 204.379 386.272 196.257 386.272 186.279C386.272 173.698 386.589 161.186 387.207 148.744L392.262 53.0024L421.291 53.8005C419.912 64.7327 419.041 75.753 418.676 86.8073L416.236 162.695C416.109 165.159 415.919 168.699 415.681 173.367C415.554 177.046 415.492 179.649 415.492 181.141C415.492 184.977 416.49 187.718 418.486 189.35C420.356 190.98 424.348 191.797 430.465 191.797C444.079 191.693 457.738 190.323 471.475 187.719Z" fill="white"/>
<path d="M744.168 54.856L771.692 62.4396C767.952 78.1619 762.961 101.277 756.719 131.751C748.1 172.636 743.614 193.601 743.234 194.693C739.495 210.85 734.313 219.595 727.689 220.948C726.311 220.687 724.441 219.595 722.08 217.686C717.579 213.312 714.077 204.636 711.589 191.621L685.001 58.1366L712.525 53L717.025 84.6008C719.766 105.791 724.204 136.054 730.319 175.43C732.316 156.984 733.425 147.144 733.679 145.894C737.671 109.398 741.172 79.0637 744.168 54.856Z" fill="white"/>
<path d="M373.36 184.023L371.49 216.821C361.508 219.72 348.023 221.056 331.052 220.919C311.688 220.796 299.582 216.563 294.718 208.215C289.854 202.61 287.413 189.282 287.413 168.233C287.413 165.231 288.412 153.551 290.409 133.161C292.294 113.898 293.277 96.3881 293.404 80.6658C293.531 70.4096 293.04 61.9413 291.915 55.2596L372.237 53.5938L371.302 83.9619C345.458 84.5002 329.485 85.4716 323.369 86.8079L321.88 120.873C340.847 120.577 355.394 120.041 365.503 119.207V151.017L320.375 152.04L319.995 162.886C319.74 170.296 320.311 176.301 321.691 180.952C322.927 185.446 326.048 187.72 331.056 187.72C343.902 187.579 358.005 186.348 373.36 184.023Z" fill="white"/>
<path d="M277.871 54.8244L276.176 83.3365C275.305 98.2437 274.37 133.991 273.371 190.582C273.118 201.377 272.246 209.585 270.757 215.19C269.379 218.888 267.762 220.796 265.876 220.918C262.881 220.519 260.33 217.724 258.206 212.518L223.187 132.551L223.757 220.918L194.538 219.286C195.664 198.393 196.662 175.278 197.534 149.975L199.594 93.5757C200.228 75.5626 201.162 64.6816 202.414 61.002C204.031 56.4732 206.154 54.2337 208.768 54.2337C210.765 54.2337 212.587 55.0318 214.203 56.6621C215.581 58.3279 217.816 62.7701 220.937 70.0071L250.52 138.485L249.032 53.5903L277.871 54.8244Z" fill="white"/>
<path d="M185.739 214.791L158.77 220.918C155.775 207.677 153.287 195.928 151.29 185.654L126.017 186.887L125.256 191.625C124.004 199.261 122.134 209.048 119.646 220.918L92.6768 213.351C92.8038 212.952 94.7995 205.333 98.6664 190.582L129.755 73.6881C133.241 59.9085 137.123 53.0024 141.37 53.0024C144.856 53.0024 148.723 62.3043 152.969 80.8896L161.209 115.736C171.319 159.623 179.495 192.632 185.739 214.791ZM142.305 157.576H146.425C146.172 155.249 145.665 151.71 144.919 146.903L140.245 119.432C139.485 114.903 139.119 111.293 139.119 108.551L137.423 119.033L131.069 157.35C133.306 157.489 137.061 157.576 142.305 157.576Z" fill="white"/>
<path d="M85.2026 54.8235L83.6971 93.4C83.0786 110.459 82.6351 131.717 82.3822 157.176C82.2552 178.607 78.4519 194.626 70.9737 205.141C63.6057 215.657 53.9243 220.916 41.9439 220.916C29.4577 220.916 19.5378 216.142 12.1698 206.581C4.43741 196.603 0.381237 183.604 0 167.621L28.8392 165.556C29.2035 174.302 30.7726 180.949 33.5126 185.443C35.8895 189.279 38.6943 191.414 41.9426 191.794C44.6838 191.794 47.2514 189.157 49.6127 183.812C51.6097 179.439 52.7975 170.57 53.1787 157.174C54.1772 126.545 54.6842 109.989 54.6842 107.526C54.6842 81.5646 54.7322 63.3784 54.8579 53L85.2026 54.8235Z" fill="white"/>
<path d="M645.844 0.477142C629.305 2.6907 612.026 15.4186 603.715 31.5223L601 36.7795V136.666C601 231.905 601.082 236.719 602.481 240.15C610.627 259.463 643.293 272.579 687.644 274.294C692.663 274.46 696.859 274.848 696.859 275.069C696.859 276.618 692.416 283.204 689.207 286.413C685.175 290.453 671.928 299.584 661.066 305.782C650.863 311.537 644.198 316.02 642.47 318.289C640.496 320.89 640.413 325.538 642.388 328.139C645.762 332.621 652.015 333.618 671.352 332.677C709.119 330.795 744.089 321.775 776.673 305.561C788.604 299.584 808.187 286.524 816.58 278.887L822.998 273.077L968.309 272.8L1113.62 272.523L1117.41 271.361C1133.94 266.215 1155.01 251.661 1158.88 242.751C1159.95 240.15 1160.11 227.533 1159.95 134.397L1159.7 28.9214L1156.49 24.6602C1151.14 17.6322 1140.2 9.49738 1129.01 4.40619C1127.74 3.82852 1126.97 3.32562 1126.17 2.88797C1120.21 -0.364044 1112.29 -0.0143433 881.666 0.0344238C753.552 0.0897522 647.407 0.255768 645.844 0.477142ZM1112.8 22.336C1115.1 23.2768 1118.8 25.269 1121.11 26.7631C1123.33 28.3126 1126.29 30.8029 1127.69 32.3524L1130.08 35.1193L1130.32 134.729C1130.53 226.987 1131.06 236.103 1126.77 240.347C1125.8 241.301 1124.59 242.009 1123.08 243.36C1118.31 247.621 1112.22 251.218 1108.02 252.269C1106.38 252.712 1058.82 252.878 954.733 252.878H803.744L801.687 254.428C799.712 255.811 793.13 262.784 781.939 275.235C776.18 281.654 770.996 285.085 758.736 290.564C747.874 295.378 734.874 299.695 722.038 302.628C716.689 303.901 712.164 304.897 711.999 304.897C711.752 304.897 712.411 303.845 713.398 302.572C716.689 298.201 722.202 288.516 723.93 283.868C725.329 280.271 725.823 276.784 726.234 269.203L726.728 259.242L722.86 256.088L718.993 252.878H688.384C660.408 252.878 657.528 252.767 654.401 251.827C645.926 249.226 636.628 240.98 632.267 232.126L630.21 228.031V134.84C630.21 44.6376 630.293 41.4833 631.774 38.2183C634.818 31.633 645.844 22.6127 652.509 21.1739C654.484 20.7312 720.639 20.5652 881.995 20.6205L1108.68 20.7312L1112.8 22.336Z" fill="white"/>
<path d="M645.844 0.477142C629.305 2.6907 612.026 15.4186 603.715 31.5223L601 36.7795V136.666C601 231.905 601.082 236.719 602.481 240.15C610.627 259.463 643.293 272.579 687.644 274.294C692.663 274.46 696.859 274.848 696.859 275.069C696.859 276.618 692.416 283.204 689.207 286.413C685.175 290.453 671.928 299.584 661.066 305.782C650.863 311.537 644.198 316.02 642.47 318.289C640.496 320.89 640.413 325.538 642.388 328.139C645.762 332.621 652.015 333.618 671.352 332.677C709.119 330.795 744.089 321.775 776.673 305.561C788.604 299.584 808.187 286.524 816.58 278.887L822.998 273.077L968.309 272.8L1113.62 272.523L1117.41 271.361C1133.94 266.215 1155.01 251.661 1158.88 242.751C1159.95 240.15 1160.11 227.533 1159.95 134.397L1159.7 28.9214L1156.49 24.6602C1151.14 17.6322 1140.2 9.49738 1129.01 4.40619C1127.74 3.82852 1126.97 3.32562 1126.17 2.88797C1120.21 -0.364044 1112.29 -0.0143433 881.666 0.0344238C753.552 0.0897522 647.407 0.255768 645.844 0.477142ZM1112.8 22.336C1115.1 23.2768 1118.8 25.269 1121.11 26.7631C1123.33 28.3126 1126.29 30.8029 1127.69 32.3524L1130.08 35.1193L1130.32 134.729C1130.53 226.987 1131.06 236.103 1126.77 240.347C1125.8 241.301 1124.59 242.009 1123.08 243.36C1118.31 247.621 1112.22 251.218 1108.02 252.269C1106.38 252.712 1058.82 252.878 954.733 252.878H803.744L801.687 254.428C799.712 255.811 793.13 262.784 781.939 275.235C776.18 281.654 770.996 285.085 758.736 290.564C747.874 295.378 734.874 299.695 722.038 302.628C716.689 303.901 712.164 304.897 711.999 304.897C711.752 304.897 712.411 303.845 713.398 302.572C716.689 298.201 722.202 288.516 723.93 283.868C725.329 280.271 725.823 276.784 726.234 269.203L726.728 259.242L722.86 256.088L718.993 252.878H688.384C660.408 252.878 657.528 252.767 654.401 251.827C645.926 249.226 636.628 240.98 632.267 232.126L630.21 228.031V134.84C630.21 44.6376 630.293 41.4833 631.774 38.2183C634.818 31.633 645.844 22.6127 652.509 21.1739C654.484 20.7312 720.639 20.5652 881.995 20.6205L1108.68 20.7312L1112.8 22.336Z" stroke="white"/>
</svg>
